<svg width="160" height="70" viewBox="0 0 160 70" fill="none" xmlns="http://www.w3.org/2000/svg">
<path d="M48.5187 34.2741C50.6474 34.2741 52.0763 35.2364 52.9512 36.432V19.4019C52.9512 19.0811 52.5721 18.877 52.3096 19.0811L31.2844 34.4491H31.8385C34.0256 34.4491 35.1337 35.8488 35.1337 37.3652C35.1337 38.5608 34.5213 39.4356 33.6756 39.8147C33.5298 39.8731 33.5298 40.0772 33.6756 40.1355C34.6379 40.5438 35.3378 41.5644 35.3378 42.7892C35.3378 44.5388 34.2005 45.9094 32.0134 45.9094H26.0354C25.9187 45.9094 25.8021 45.8219 25.8021 45.6761V38.4442L10.1425 49.9045C9.88008 50.1378 9.99673 50.546 10.3467 50.546H52.5721C52.7762 50.546 52.922 50.4002 52.922 50.1961V44.393C51.7847 45.4428 50.2975 46.1135 48.4895 46.1135C45.1068 46.1135 42.3657 43.7807 42.3657 40.1938C42.3948 36.5778 45.1651 34.2741 48.5187 34.2741ZM40.1494 45.7053C40.1494 45.8219 40.0619 45.9094 39.9453 45.9094H37.9332C37.8165 45.9094 37.729 45.8219 37.729 45.7053V34.6532C37.729 34.5366 37.8165 34.4491 37.9332 34.4491H39.9453C40.0619 34.4491 40.1494 34.5366 40.1494 34.6532V45.7053Z" fill="#00112C"/>
<path d="M28.4852 38.9989H31.3139C32.1304 38.9989 32.6553 38.5323 32.6553 37.8033C32.6553 37.1034 32.1304 36.6077 31.3139 36.6077H28.3686C28.3103 36.6077 28.252 36.666 28.252 36.7243V38.7948C28.252 38.9114 28.3686 38.9989 28.4852 38.9989Z" fill="#00112C"/>
<path d="M28.4852 43.7812H31.4305C32.3345 43.7812 32.8886 43.2855 32.8886 42.469C32.8886 41.74 32.3637 41.1567 31.4305 41.1567H28.4852C28.3686 41.1567 28.252 41.2442 28.252 41.39V43.548C28.252 43.6646 28.3686 43.7812 28.4852 43.7812Z" fill="#00112C"/>
<path d="M51.1144 37.7446C50.5603 37.0156 49.6271 36.4324 48.519 36.4324C46.4194 36.4324 44.903 38.0362 44.903 40.1942C44.903 42.3521 46.4194 43.956 48.519 43.956C49.4813 43.956 50.3853 43.5477 50.8811 43.1395C50.9102 43.1103 50.9394 43.052 50.9394 42.9936V41.8855C50.9394 41.798 50.8519 41.7106 50.7644 41.7106H48.1691C48.0233 41.7106 47.9358 41.5939 47.9358 41.4773V39.8442C47.9358 39.6984 48.0524 39.6109 48.1691 39.6109H52.9807V37.0156L51.4351 37.8613C51.3185 37.8904 51.1727 37.8321 51.1144 37.7446Z" fill="#00112C"/>
<path d="M54.7595 40.1944C54.7595 36.6659 57.2965 34.2747 60.5626 34.2747C62.6914 34.2747 64.0619 35.3536 64.8784 36.6659C64.9368 36.7534 64.9076 36.8992 64.791 36.9283L63.4787 37.6282C63.3912 37.6865 63.2746 37.6574 63.2454 37.5699C62.6914 36.695 61.6707 36.0535 60.5626 36.0535C58.3755 36.0535 56.7425 37.774 56.7425 40.1944C56.7425 42.5856 58.3755 44.3353 60.5626 44.3353C61.6707 44.3353 62.6914 43.6937 63.2454 42.8189C63.3037 42.7314 63.3912 42.7022 63.4787 42.7606L64.791 43.4313C64.9076 43.4896 64.9368 43.6062 64.8784 43.7229C64.0328 45.0351 62.6622 46.1433 60.5626 46.1433C57.2965 46.1141 54.7595 43.6937 54.7595 40.1944Z" fill="#00112C"/>
<path d="M66.0157 40.1945C66.0157 37.3367 67.6487 35.1204 70.0983 34.4789C74.2683 33.3708 78.0884 37.2784 77.1844 41.6234C76.6304 44.3062 74.5016 46.1434 71.673 46.1434C68.3486 46.1142 66.0157 43.6063 66.0157 40.1945ZM75.3181 40.1945C75.3181 37.8324 73.8601 36.0536 71.6438 36.0536C69.3984 36.0536 67.9695 37.8324 67.9695 40.1945C67.9695 42.5565 69.3984 44.3354 71.6438 44.3354C73.8892 44.3354 75.3181 42.5274 75.3181 40.1945Z" fill="#00112C"/>
<path d="M89.1989 45.7644V37.0452L85.7287 45.8227C85.7287 45.8519 85.6703 45.881 85.6412 45.881H84.9121C84.883 45.881 84.8247 45.8519 84.8247 45.8227L81.3253 37.0452V45.7644C81.3253 45.8518 81.267 45.9102 81.1795 45.9102H79.4298C79.3423 45.9102 79.284 45.8518 79.284 45.7644V34.5665C79.284 34.479 79.3423 34.4207 79.4298 34.4207H81.9377C82.0543 34.4207 82.1418 34.479 82.2001 34.5956L85.2621 42.4691L88.2948 34.5956C88.324 34.479 88.4407 34.4207 88.5573 34.4207H91.0652C91.1527 34.4207 91.211 34.479 91.211 34.5665V45.7644C91.211 45.8518 91.1527 45.9102 91.0652 45.9102H89.3155C89.2863 45.9102 89.1989 45.8518 89.1989 45.7644Z" fill="#00112C"/>
<path d="M109.028 45.7059V34.6538C109.028 34.5372 109.116 34.4497 109.233 34.4497H116.669C116.785 34.4497 116.873 34.5372 116.873 34.6538V35.9953C116.873 36.1119 116.785 36.1994 116.669 36.1994H111.245C111.128 36.1994 111.041 36.2869 111.041 36.4035V38.9405C111.041 39.0572 111.128 39.1447 111.245 39.1447H116.552C116.669 39.1447 116.756 39.2321 116.756 39.3488V40.6902C116.756 40.8068 116.669 40.8943 116.552 40.8943H111.245C111.128 40.8943 111.041 40.9818 111.041 41.0985V43.8688C111.041 43.9854 111.128 44.0729 111.245 44.0729H116.669C116.785 44.0729 116.873 44.1604 116.873 44.277V45.6184C116.873 45.7351 116.785 45.8226 116.669 45.8226H109.233C109.116 45.9101 109.028 45.8226 109.028 45.7059Z" fill="#00112C"/>
<path d="M126.204 45.7934L123.784 41.7108C123.755 41.6525 123.667 41.6234 123.609 41.6234H121.918C121.801 41.6234 121.714 41.7108 121.714 41.8275V45.7059C121.714 45.8226 121.626 45.9101 121.51 45.9101H119.935C119.818 45.9101 119.731 45.8226 119.731 45.7059V34.6538C119.731 34.5372 119.818 34.4497 119.935 34.4497H124.776C127.05 34.4497 128.537 35.9078 128.537 38.0365C128.537 39.932 127.371 41.011 126.088 41.3317C125.942 41.3609 125.884 41.5067 125.942 41.6525C126.409 42.4107 127.867 44.7436 128.421 45.5893C128.508 45.7351 128.421 45.9101 128.246 45.9101H126.409C126.321 45.9101 126.263 45.8809 126.204 45.7934ZM126.467 38.0074C126.467 36.8992 125.65 36.1994 124.513 36.1994H121.947C121.83 36.1994 121.743 36.2869 121.743 36.4035V39.6404C121.743 39.757 121.83 39.8445 121.947 39.8445H124.513C125.65 39.8445 126.467 39.1447 126.467 38.0074Z" fill="#00112C"/>
<path d="M142.126 45.7059V34.6538C142.126 34.5372 142.214 34.4497 142.331 34.4497H149.796C149.912 34.4497 150 34.5372 150 34.6538V36.0244C150 36.1411 149.912 36.2285 149.796 36.2285H144.343C144.226 36.2285 144.139 36.316 144.139 36.4327V38.9989C144.139 39.1155 144.226 39.203 144.343 39.203H149.65C149.767 39.203 149.854 39.2905 149.854 39.4071V40.7777C149.854 40.8943 149.767 40.9818 149.65 40.9818H144.343C144.226 40.9818 144.139 41.0693 144.139 41.1859V43.9854C144.139 44.1021 144.226 44.1895 144.343 44.1895H149.796C149.912 44.1895 150 44.277 150 44.3937V45.7642C150 45.8809 149.912 45.9684 149.796 45.9684H142.331C142.214 45.9101 142.126 45.8226 142.126 45.7059Z" fill="#00112C"/>
<path d="M129.995 40.136C129.995 36.6075 132.532 34.2163 135.798 34.2163C137.927 34.2163 139.298 35.2953 140.114 36.6075C140.173 36.695 140.143 36.8408 140.027 36.87L138.715 37.5698C138.627 37.6282 138.51 37.599 138.481 37.5115C137.927 36.6367 136.907 35.9951 135.798 35.9951C133.611 35.9951 131.978 37.7157 131.978 40.136C131.978 42.5272 133.611 44.2769 135.798 44.2769C136.907 44.2769 137.927 43.6354 138.481 42.7605C138.54 42.6731 138.627 42.6439 138.715 42.7022L140.027 43.3729C140.143 43.4312 140.173 43.5479 140.114 43.6645C139.269 44.9768 137.898 46.0849 135.798 46.0849C132.532 46.0557 129.995 43.6645 129.995 40.136Z" fill="#00112C"/>
<path d="M104.071 45.7644V37.0452L100.601 45.8227C100.601 45.8519 100.543 45.881 100.513 45.881H99.7844C99.7552 45.881 99.6969 45.8519 99.6969 45.8227L96.1975 37.0452V45.7644C96.1975 45.8518 96.1392 45.9102 96.0517 45.9102H94.3021C94.2146 45.9102 94.1562 45.8518 94.1562 45.7644V34.5665C94.1562 34.479 94.2146 34.4207 94.3021 34.4207H96.8099C96.9266 34.4207 97.014 34.479 97.0724 34.5956L100.134 42.4691L103.167 34.5956C103.196 34.479 103.313 34.4207 103.43 34.4207H105.937C106.025 34.4207 106.083 34.479 106.083 34.5665V45.7644C106.083 45.8518 106.025 45.9102 105.937 45.9102H104.188C104.129 45.9102 104.071 45.8518 104.071 45.7644Z" fill="#00112C"/>
</svg>
