<svg width="160" height="70" viewBox="0 0 160 70" fill="none" xmlns="http://www.w3.org/2000/svg">
<g clip-path="url(#clip0)">
<path d="M16.6529 18.2861L18.2318 21.0335C18.5476 21.6019 18.5476 22.2967 18.2318 22.8651L8.82128 39.1914L13.2739 46.8967C13.9686 48.0967 15.2634 48.8546 16.6529 48.8546C18.0423 48.8546 19.3371 48.0967 20.0318 46.8967L24.4844 39.1914L23.316 37.1072L18.2634 45.8546C17.9476 46.423 17.316 46.7703 16.6844 46.7703C16.0213 46.7703 15.4213 46.423 15.1055 45.8546L11.2213 39.1914L19.9686 24.0335L21.5476 26.7809C21.8634 27.3493 21.8634 28.044 21.5476 28.6124L15.4529 39.1914L16.6529 41.2756L23.2844 29.7809L27.6423 37.3282C28.3055 38.4967 28.3055 39.9177 27.6423 41.0861L23.2213 48.7598C22.5581 49.9282 20.4423 52.5493 16.6529 52.5493C12.8634 52.5493 10.7792 49.9282 10.0844 48.7598L5.66338 41.0861C5.00023 39.9177 5.00023 38.4967 5.66338 37.3282L16.6529 18.2861Z" fill="#00112C"/>
<path d="M37.2104 26.4648H40.2736V44.5596H37.2104V26.4648Z" fill="#00112C"/>
<path d="M44.3791 29.7807C45.3732 29.7807 46.1791 28.9748 46.1791 27.9807C46.1791 26.9866 45.3732 26.1807 44.3791 26.1807C43.385 26.1807 42.5791 26.9866 42.5791 27.9807C42.5791 28.9748 43.385 29.7807 44.3791 29.7807Z" fill="#00112C"/>
<path d="M42.8315 31.9905H45.9263V44.5589H42.8315V31.9905ZM54.0421 31.6747C50.5368 31.6747 47.6947 34.1379 47.6947 38.0537C47.6947 41.9695 50.1579 44.3695 54.0736 44.3695C55.621 44.3695 57.2631 45.1589 57.2631 46.8958C57.2631 48.6326 55.8736 49.6116 54.0736 49.6116C52.2736 49.6116 50.7894 48.5379 50.7894 46.8958H47.6947C47.6947 50.2747 50.4105 52.5168 54.0736 52.5168C57.7052 52.5168 60.3578 50.3695 60.3578 46.8958C60.3578 45.2853 59.8526 43.7695 57.7684 42.7274C59.821 41.78 60.421 39.601 60.421 38.0221C60.421 34.1379 57.5473 31.6747 54.0421 31.6747V31.6747ZM54.0736 41.8116C52.2736 41.8116 50.7894 40.2642 50.7894 38.0537C50.7894 35.8747 52.2736 34.2642 54.0736 34.2642C55.8736 34.2642 57.3263 35.9063 57.3263 38.0537C57.3263 40.2326 55.8421 41.8116 54.0736 41.8116V41.8116ZM69.3894 31.6747C67.9684 31.6747 66.6105 32.1168 65.4736 33.5379V26.4326H62.3789V44.5274H65.4736V38.1484C65.4736 36.2852 66.7368 34.7379 68.5684 34.7379C70.2105 34.7379 71.4105 35.7168 71.4105 37.9905V44.5274H74.5052V37.7695C74.5368 34.0747 72.9578 31.6747 69.3894 31.6747V31.6747ZM82.0526 42.4116C81.6736 42.4116 81.3578 42.2853 81.1683 42.0326C80.9789 41.78 80.8841 41.401 80.8841 40.8326V34.6431H83.3789L83.6631 31.9589H80.9157V28.5168L77.7894 28.8642V31.9905H75.421V34.6747H77.7894V40.9274C77.7894 42.2221 78.1052 43.201 78.7052 43.8642C79.3052 44.5274 80.221 44.8747 81.3894 44.8747C81.9262 44.8747 82.4315 44.8116 82.9683 44.6537C83.5052 44.4958 83.9789 44.2747 84.3894 43.9905L83.3157 42.001C82.9052 42.2853 82.4631 42.4116 82.0526 42.4116ZM94.7789 37.801C93.5157 37.0116 92.0315 36.9168 90.5789 36.8221C89.7262 36.7589 88.4315 36.5695 88.4315 35.4642C88.4315 34.6747 89.2525 34.2326 90.7368 34.2326C91.9368 34.2326 92.9789 34.5168 93.8631 35.3379L95.5999 33.3168C94.1473 32.0537 92.6631 31.6747 90.6736 31.6747C88.3683 31.6747 85.3368 32.6852 85.3368 35.5905C85.3368 36.7905 85.9683 37.8958 87.0104 38.5274C88.1789 39.2537 89.6947 39.3484 90.9894 39.5063C91.8736 39.601 93.3262 39.8221 93.0736 41.0537C92.9157 41.9063 91.8736 42.1589 91.1473 42.1905C90.3578 42.2221 89.5683 42.1589 88.7789 41.9695C87.9578 41.7484 87.2947 41.3695 86.5683 40.8958L84.9894 42.8853C85.0841 42.9484 85.1789 43.0431 85.1789 43.0431C87.1999 44.7168 90.0104 45.2537 92.5683 44.6853C94.4946 44.2431 96.1367 42.8537 96.1367 40.7695C96.1999 39.601 95.821 38.4326 94.7789 37.801ZM104.979 31.6747C103.558 31.6747 101.884 32.2747 100.905 33.6642L100.81 31.9589H97.8104V50.0537L100.905 49.7063V43.0747C101.789 44.4326 103.716 44.8747 105.042 44.8747C109.053 44.8747 111.389 41.8747 111.389 38.2431C111.389 34.5484 108.831 31.6747 104.979 31.6747V31.6747ZM104.726 42.1905C102.61 42.1905 101.189 40.2642 101.189 38.3063C101.189 36.3484 102.516 34.2642 104.726 34.2642C106.968 34.2642 108.263 36.38 108.263 38.3063C108.295 40.2642 106.842 42.1905 104.726 42.1905ZM115.431 39.38C115.779 40.8642 117.137 42.1589 119.347 42.1589C120.484 42.1589 122 41.5905 122.726 40.8642L124.716 42.8221C123.389 44.18 121.21 44.8431 119.316 44.8431C115.4 44.8431 112.558 42.2537 112.558 38.2431C112.558 34.4537 115.495 31.6747 119.095 31.6747C122.884 31.6747 126.042 34.2642 125.726 39.38H115.431V39.38ZM122.726 37.0116C122.379 35.5274 120.895 34.2326 119.095 34.2326C117.421 34.2326 115.874 35.3695 115.431 37.0116H122.726ZM129.768 39.38C130.116 40.8642 131.474 42.1589 133.684 42.1589C134.821 42.1589 136.337 41.5905 137.063 40.8642L139.052 42.8221C137.726 44.18 135.547 44.8431 133.652 44.8431C129.737 44.8431 126.895 42.2537 126.895 38.2431C126.895 34.4537 129.831 31.6747 133.431 31.6747C137.221 31.6747 140.379 34.2642 140.063 39.38H129.768V39.38ZM137.095 37.0116C136.747 35.5274 135.263 34.2326 133.463 34.2326C131.789 34.2326 130.242 35.3695 129.8 37.0116H137.095ZM147.547 44.8747C148.968 44.8747 150.642 44.2747 151.621 42.8853L151.716 44.5589H154.716V26.4642H151.621V33.4747C150.737 32.1168 148.779 31.7063 147.452 31.7063C143.442 31.7063 141.137 34.6747 141.137 38.3379C141.137 42.001 143.695 44.8747 147.547 44.8747V44.8747ZM147.768 34.3589C149.884 34.3589 151.305 36.2852 151.305 38.2431C151.305 40.201 149.979 42.2853 147.768 42.2853C145.526 42.2853 144.231 40.1695 144.231 38.2431C144.231 36.2852 145.652 34.3589 147.768 34.3589V34.3589Z" fill="#00112C"/>
</g>
<defs>
<clipPath id="clip0">
<rect width="150" height="34.74" fill="white" transform="translate(5 18)"/>
</clipPath>
</defs>
</svg>
