<svg width="160" height="70" viewBox="0 0 160 70" fill="none" xmlns="http://www.w3.org/2000/svg">
<path d="M75.9497 33.2659C74.2447 33.2659 73.0353 34.6 73.0353 36.6479V44.1601H70.4325V30.9374H73.0041V32.5521C73.3213 32.0169 73.7758 31.5764 74.3206 31.276C74.8654 30.9757 75.4806 30.8265 76.1025 30.8439H77.0376V33.2659H75.9497ZM68.634 37.5488C68.634 33.6057 65.8286 30.6569 62.032 30.6569C61.135 30.663 60.248 30.8464 59.4221 31.1966C58.5962 31.5467 57.8477 32.0567 57.2196 32.6972C56.5916 33.3378 56.0964 34.0961 55.7625 34.9287C55.4286 35.7614 55.2627 36.6518 55.2742 37.5488C55.2742 41.4887 58.3133 44.4687 62.2782 44.4687C63.3858 44.4896 64.4821 44.244 65.4749 43.7525C66.4676 43.261 67.3276 42.538 67.9825 41.6446L66.0935 40.2606C65.6602 40.8655 65.0868 41.3563 64.4223 41.6913C63.7579 42.0262 63.0222 42.1952 62.2782 42.1838C61.2186 42.1789 60.1959 41.7944 59.3953 41.1002C58.5947 40.406 58.0693 39.448 57.9143 38.3997H68.6402L68.634 37.5488ZM57.9705 36.3362C58.4349 34.3195 60.0464 32.9542 62.0008 32.9542C63.9552 32.9542 65.5636 34.3195 66 36.3362H57.9705ZM47.0295 30.6569C46.1597 30.6576 45.2987 30.8307 44.4961 31.1662C43.6936 31.5016 42.9655 31.9928 42.3539 32.6113V26H39.7512V44.1601H42.3227V42.4831C43.5685 43.7434 45.2637 44.4575 47.0358 44.4687C47.955 44.4882 48.8689 44.324 49.7238 43.9857C50.5788 43.6475 51.3576 43.1419 52.0146 42.4987C52.6716 41.8555 53.1936 41.0876 53.55 40.24C53.9064 39.3924 54.0899 38.4822 54.0899 37.5628C54.0899 36.6433 53.9064 35.7331 53.55 34.8856C53.1936 34.038 52.6716 33.2701 52.0146 32.6269C51.3576 31.9837 50.5788 31.4781 49.7238 31.1398C48.8689 30.8016 47.955 30.6374 47.0358 30.6569H47.0295ZM46.8425 42.1433C45.9353 42.1476 45.0472 41.8824 44.291 41.3812C43.5348 40.88 42.9445 40.1654 42.5951 39.3282C42.2456 38.491 42.1527 37.5688 42.3282 36.6787C42.5037 35.7886 42.9396 34.9707 43.5807 34.3288C44.2217 33.6868 45.039 33.2498 45.9289 33.0731C46.8188 32.8964 47.741 32.988 48.5787 33.3363C49.4164 33.6847 50.1318 34.274 50.634 35.0295C51.1363 35.785 51.4027 36.6727 51.3997 37.5799C51.4005 38.1783 51.2831 38.771 51.0543 39.3239C50.8255 39.8768 50.4898 40.3791 50.0664 40.802C49.6429 41.2248 49.1402 41.5599 48.587 41.7879C48.0337 42.016 47.4409 42.1325 46.8425 42.1309V42.1433ZM30.1662 42.0186C32.6785 42.0186 34.6298 40.0923 34.6298 37.2059V26H37.3261V44.1601H34.661V42.4426C34.0383 43.0861 33.2916 43.5966 32.466 43.9433C31.6403 44.2899 30.753 44.4655 29.8576 44.4593C25.983 44.4593 23 41.6352 23 37.3524V26H25.7461V37.2215C25.7461 40.1235 27.6164 42.0186 30.1662 42.0186Z" fill="#00112C"/>
<path d="M83.5118 26H96.2513V29.1171H86.9531V33.5433H95.9926V36.5544H86.9531V41.0555H96.2513V44.1725H83.5118V26ZM131.434 44.4998C135.339 44.4998 137.54 42.6296 137.54 40.0611C137.54 38.2314 136.237 36.8661 133.51 36.2739L130.626 35.6848C128.953 35.373 128.426 35.0613 128.426 34.4379C128.426 33.6306 129.233 33.135 130.72 33.135C132.331 33.135 133.525 33.5683 133.837 35.0582H137.216C137.032 32.2529 135.015 30.4013 130.926 30.4013C127.391 30.4013 124.91 31.8601 124.91 34.6873C124.91 36.6417 126.275 37.9135 129.221 38.5338L132.444 39.2787C133.715 39.5281 134.055 39.871 134.055 40.3978C134.055 41.2363 133.095 41.763 131.543 41.763C129.592 41.763 128.476 41.3298 128.042 39.8398H124.645C125.14 42.6389 127.216 44.4998 131.434 44.4998ZM123.663 44.1601H120.007C117.712 44.1601 116.441 42.7325 116.441 40.9308V33.7927H113.869V30.7504H116.453V26.932H119.851V30.7504H123.663V33.7927H119.851V40.0611C119.851 40.7749 120.346 41.1178 121.122 41.1178H123.663V44.1601ZM109.013 30.7567V31.9661C107.816 30.9549 106.299 30.4024 104.733 30.4075C103.795 30.3878 102.863 30.5555 101.991 30.9007C101.119 31.246 100.324 31.7618 99.6539 32.4181C98.9837 33.0743 98.4512 33.8578 98.0877 34.7225C97.7242 35.5871 97.537 36.5157 97.537 37.4537C97.537 38.3917 97.7242 39.3202 98.0877 40.1849C98.4512 41.0496 98.9837 41.8331 99.6539 42.4893C100.324 43.1455 101.119 43.6614 101.991 44.0067C102.863 44.3519 103.795 44.5196 104.733 44.4998C106.3 44.5066 107.817 43.954 109.013 42.9413V44.1538H112.401V30.7504L109.013 30.7567ZM105.013 41.5573C104.201 41.5666 103.403 41.334 102.723 40.8892C102.043 40.4443 101.51 39.8072 101.193 39.0589C100.876 38.3106 100.788 37.4849 100.941 36.6866C101.094 35.8883 101.481 35.1536 102.053 34.5758C102.624 33.998 103.355 33.6032 104.152 33.4415C104.948 33.2799 105.775 33.3588 106.526 33.668C107.278 33.9773 107.921 34.5031 108.373 35.1786C108.825 35.854 109.066 36.6487 109.066 37.4615C109.071 37.9973 108.969 38.5288 108.767 39.0251C108.566 39.5215 108.267 39.9729 107.89 40.3532C107.512 40.7336 107.063 41.0353 106.568 41.2409C106.074 41.4465 105.543 41.5519 105.007 41.5511L105.013 41.5573Z" fill="#00112C"/>
</svg>
